ISO-10303-21;
HEADER;
/* Generated by software containing ST-Developer
 * from STEP Tools, Inc. (www.steptools.com) 
 */
/* OPTION: using custom renumber hook */

FILE_DESCRIPTION(
/* description */ ('STEP AP242 Edition 2',
'CAx-IF Rec.Pracs.---Representation and Presentation of Product Manufa
cturing Information (PMI)---4.0---2014-10-13',
'CAx-IF Rec.Pracs.---3D Tessellated Geometry---0.4---2014-09-14','2;1',
'CAx-IF Rec.Pracs.---User Defined Attributes---1.5---2016-08-15'),
/* implementation_level */ '2;1');

FILE_NAME(
/* name */ '6a296a04a3a76b18bd587ade',
/* time_stamp */ '2026-06-10T13:43:33Z',
/* author */ (''),
/* organization */ (''),
/* preprocessor_version */ 'ST-DEVELOPER v20',
/* originating_system */ 'ONSHAPE BY PTC INC, 1.216',
/* authorisation */ '  ');

FILE_SCHEMA (('AP242_MANAGED_MODEL_BASED_3D_ENGINEERING_MIM_LF { 1 0 10303 442 3 1 4 }'));
ENDSEC;

DATA;
#10=CONTEXT_DEPENDENT_SHAPE_REPRESENTATION(#14,#371);
#11=CONTEXT_DEPENDENT_SHAPE_REPRESENTATION(#15,#373);
#12=NEXT_ASSEMBLY_USAGE_OCCURRENCE('NAUO1','Part2','Part2',#374,#375,'');
#13=NEXT_ASSEMBLY_USAGE_OCCURRENCE('NAUO2','Base_link','Base_link',#374,
#376,'');
#14=(
REPRESENTATION_RELATIONSHIP(' ',' ',#225,#224)
REPRESENTATION_RELATIONSHIP_WITH_TRANSFORMATION(#16)
SHAPE_REPRESENTATION_RELATIONSHIP()
);
#15=(
REPRESENTATION_RELATIONSHIP(' ',' ',#226,#224)
REPRESENTATION_RELATIONSHIP_WITH_TRANSFORMATION(#17)
SHAPE_REPRESENTATION_RELATIONSHIP()
);
#16=ITEM_DEFINED_TRANSFORMATION(' ',' ',#227,#238);
#17=ITEM_DEFINED_TRANSFORMATION(' ',' ',#227,#245);
#18=SHAPE_REPRESENTATION_RELATIONSHIP('','',#225,#20);
#19=SHAPE_REPRESENTATION_RELATIONSHIP('','',#226,#21);
#20=ADVANCED_BREP_SHAPE_REPRESENTATION('',(#219),#361);
#21=ADVANCED_BREP_SHAPE_REPRESENTATION('',(#220),#362);
#22=CYLINDRICAL_SURFACE('',#236,0.01);
#23=CYLINDRICAL_SURFACE('',#237,0.01);
#24=CIRCLE('',#230,0.01);
#25=CIRCLE('',#231,0.01);
#26=CIRCLE('',#234,0.01);
#27=CIRCLE('',#235,0.01);
#28=ORIENTED_EDGE('',*,*,#76,.T.);
#29=ORIENTED_EDGE('',*,*,#77,.T.);
#30=ORIENTED_EDGE('',*,*,#78,.F.);
#31=ORIENTED_EDGE('',*,*,#79,.T.);
#32=ORIENTED_EDGE('',*,*,#80,.T.);
#33=ORIENTED_EDGE('',*,*,#81,.F.);
#34=ORIENTED_EDGE('',*,*,#82,.T.);
#35=ORIENTED_EDGE('',*,*,#78,.T.);
#36=ORIENTED_EDGE('',*,*,#81,.T.);
#37=ORIENTED_EDGE('',*,*,#83,.T.);
#38=ORIENTED_EDGE('',*,*,#84,.F.);
#39=ORIENTED_EDGE('',*,*,#85,.T.);
#40=ORIENTED_EDGE('',*,*,#84,.T.);
#41=ORIENTED_EDGE('',*,*,#86,.T.);
#42=ORIENTED_EDGE('',*,*,#76,.F.);
#43=ORIENTED_EDGE('',*,*,#87,.T.);
#44=ORIENTED_EDGE('',*,*,#86,.F.);
#45=ORIENTED_EDGE('',*,*,#83,.F.);
#46=ORIENTED_EDGE('',*,*,#80,.F.);
#47=ORIENTED_EDGE('',*,*,#77,.F.);
#48=ORIENTED_EDGE('',*,*,#79,.F.);
#49=ORIENTED_EDGE('',*,*,#82,.F.);
#50=ORIENTED_EDGE('',*,*,#85,.F.);
#51=ORIENTED_EDGE('',*,*,#87,.F.);
#52=ORIENTED_EDGE('',*,*,#88,.F.);
#53=ORIENTED_EDGE('',*,*,#89,.F.);
#54=ORIENTED_EDGE('',*,*,#90,.T.);
#55=ORIENTED_EDGE('',*,*,#91,.T.);
#56=ORIENTED_EDGE('',*,*,#92,.T.);
#57=ORIENTED_EDGE('',*,*,#93,.F.);
#58=ORIENTED_EDGE('',*,*,#94,.F.);
#59=ORIENTED_EDGE('',*,*,#89,.T.);
#60=ORIENTED_EDGE('',*,*,#95,.T.);
#61=ORIENTED_EDGE('',*,*,#96,.F.);
#62=ORIENTED_EDGE('',*,*,#97,.F.);
#63=ORIENTED_EDGE('',*,*,#93,.T.);
#64=ORIENTED_EDGE('',*,*,#98,.F.);
#65=ORIENTED_EDGE('',*,*,#91,.F.);
#66=ORIENTED_EDGE('',*,*,#99,.T.);
#67=ORIENTED_EDGE('',*,*,#96,.T.);
#68=ORIENTED_EDGE('',*,*,#90,.F.);
#69=ORIENTED_EDGE('',*,*,#94,.T.);
#70=ORIENTED_EDGE('',*,*,#97,.T.);
#71=ORIENTED_EDGE('',*,*,#99,.F.);
#72=ORIENTED_EDGE('',*,*,#88,.T.);
#73=ORIENTED_EDGE('',*,*,#98,.T.);
#74=ORIENTED_EDGE('',*,*,#95,.F.);
#75=ORIENTED_EDGE('',*,*,#92,.F.);
#76=EDGE_CURVE('',#100,#101,#116,.T.);
#77=EDGE_CURVE('',#101,#102,#117,.F.);
#78=EDGE_CURVE('',#103,#102,#118,.T.);
#79=EDGE_CURVE('',#103,#100,#119,.T.);
#80=EDGE_CURVE('',#102,#104,#24,.F.);
#81=EDGE_CURVE('',#105,#104,#120,.T.);
#82=EDGE_CURVE('',#105,#103,#25,.F.);
#83=EDGE_CURVE('',#104,#106,#121,.T.);
#84=EDGE_CURVE('',#107,#106,#122,.T.);
#85=EDGE_CURVE('',#107,#105,#123,.F.);
#86=EDGE_CURVE('',#106,#101,#26,.T.);
#87=EDGE_CURVE('',#100,#107,#27,.T.);
#88=EDGE_CURVE('',#108,#109,#124,.T.);
#89=EDGE_CURVE('',#110,#108,#125,.T.);
#90=EDGE_CURVE('',#110,#111,#126,.T.);
#91=EDGE_CURVE('',#111,#109,#127,.T.);
#92=EDGE_CURVE('',#108,#112,#128,.T.);
#93=EDGE_CURVE('',#113,#112,#129,.T.);
#94=EDGE_CURVE('',#110,#113,#130,.T.);
#95=EDGE_CURVE('',#112,#114,#131,.T.);
#96=EDGE_CURVE('',#115,#114,#132,.T.);
#97=EDGE_CURVE('',#113,#115,#133,.T.);
#98=EDGE_CURVE('',#109,#114,#134,.T.);
#99=EDGE_CURVE('',#111,#115,#135,.T.);
#100=VERTEX_POINT('',#307);
#101=VERTEX_POINT('',#308);
#102=VERTEX_POINT('',#310);
#103=VERTEX_POINT('',#312);
#104=VERTEX_POINT('',#316);
#105=VERTEX_POINT('',#318);
#106=VERTEX_POINT('',#322);
#107=VERTEX_POINT('',#324);
#108=VERTEX_POINT('',#334);
#109=VERTEX_POINT('',#335);
#110=VERTEX_POINT('',#337);
#111=VERTEX_POINT('',#339);
#112=VERTEX_POINT('',#343);
#113=VERTEX_POINT('',#345);
#114=VERTEX_POINT('',#349);
#115=VERTEX_POINT('',#351);
#116=LINE('',#306,#136);
#117=LINE('',#309,#137);
#118=LINE('',#311,#138);
#119=LINE('',#313,#139);
#120=LINE('',#317,#140);
#121=LINE('',#321,#141);
#122=LINE('',#323,#142);
#123=LINE('',#325,#143);
#124=LINE('',#333,#144);
#125=LINE('',#336,#145);
#126=LINE('',#338,#146);
#127=LINE('',#340,#147);
#128=LINE('',#342,#148);
#129=LINE('',#344,#149);
#130=LINE('',#346,#150);
#131=LINE('',#348,#151);
#132=LINE('',#350,#152);
#133=LINE('',#352,#153);
#134=LINE('',#354,#154);
#135=LINE('',#355,#155);
#136=VECTOR('',#250,1.);
#137=VECTOR('',#251,1.);
#138=VECTOR('',#252,1.);
#139=VECTOR('',#253,1.);
#140=VECTOR('',#258,1.);
#141=VECTOR('',#263,1.);
#142=VECTOR('',#264,1.);
#143=VECTOR('',#265,1.);
#144=VECTOR('',#280,1.);
#145=VECTOR('',#281,1.);
#146=VECTOR('',#282,1.);
#147=VECTOR('',#283,1.);
#148=VECTOR('',#286,1.);
#149=VECTOR('',#287,1.);
#150=VECTOR('',#288,1.);
#151=VECTOR('',#291,1.);
#152=VECTOR('',#292,1.);
#153=VECTOR('',#293,1.);
#154=VECTOR('',#296,1.);
#155=VECTOR('',#297,1.);
#156=EDGE_LOOP('',(#28,#29,#30,#31));
#157=EDGE_LOOP('',(#32,#33,#34,#35));
#158=EDGE_LOOP('',(#36,#37,#38,#39));
#159=EDGE_LOOP('',(#40,#41,#42,#43));
#160=EDGE_LOOP('',(#44,#45,#46,#47));
#161=EDGE_LOOP('',(#48,#49,#50,#51));
#162=EDGE_LOOP('',(#52,#53,#54,#55));
#163=EDGE_LOOP('',(#56,#57,#58,#59));
#164=EDGE_LOOP('',(#60,#61,#62,#63));
#165=EDGE_LOOP('',(#64,#65,#66,#67));
#166=EDGE_LOOP('',(#68,#69,#70,#71));
#167=EDGE_LOOP('',(#72,#73,#74,#75));
#168=FACE_BOUND('',#156,.T.);
#169=FACE_BOUND('',#157,.T.);
#170=FACE_BOUND('',#158,.T.);
#171=FACE_BOUND('',#159,.T.);
#172=FACE_BOUND('',#160,.T.);
#173=FACE_BOUND('',#161,.T.);
#174=FACE_BOUND('',#162,.T.);
#175=FACE_BOUND('',#163,.T.);
#176=FACE_BOUND('',#164,.T.);
#177=FACE_BOUND('',#165,.T.);
#178=FACE_BOUND('',#166,.T.);
#179=FACE_BOUND('',#167,.T.);
#180=PLANE('',#228);
#181=PLANE('',#229);
#182=PLANE('',#232);
#183=PLANE('',#233);
#184=PLANE('',#239);
#185=PLANE('',#240);
#186=PLANE('',#241);
#187=PLANE('',#242);
#188=PLANE('',#243);
#189=PLANE('',#244);
#190=ADVANCED_FACE('',(#168),#180,.T.);
#191=ADVANCED_FACE('',(#169),#181,.F.);
#192=ADVANCED_FACE('',(#170),#182,.F.);
#193=ADVANCED_FACE('',(#171),#183,.T.);
#194=ADVANCED_FACE('',(#172),#22,.T.);
#195=ADVANCED_FACE('',(#173),#23,.T.);
#196=ADVANCED_FACE('',(#174),#184,.T.);
#197=ADVANCED_FACE('',(#175),#185,.F.);
#198=ADVANCED_FACE('',(#176),#186,.F.);
#199=ADVANCED_FACE('',(#177),#187,.T.);
#200=ADVANCED_FACE('',(#178),#188,.T.);
#201=ADVANCED_FACE('',(#179),#189,.F.);
#202=CLOSED_SHELL('',(#190,#191,#192,#193,#194,#195));
#203=CLOSED_SHELL('',(#196,#197,#198,#199,#200,#201));
#204=STYLED_ITEM('',(#206),#219);
#205=STYLED_ITEM('',(#207),#220);
#206=PRESENTATION_STYLE_ASSIGNMENT((#208));
#207=PRESENTATION_STYLE_ASSIGNMENT((#209));
#208=SURFACE_STYLE_USAGE(.BOTH.,#210);
#209=SURFACE_STYLE_USAGE(.BOTH.,#211);
#210=SURFACE_SIDE_STYLE('',(#212));
#211=SURFACE_SIDE_STYLE('',(#213));
#212=SURFACE_STYLE_FILL_AREA(#214);
#213=SURFACE_STYLE_FILL_AREA(#215);
#214=FILL_AREA_STYLE('',(#216));
#215=FILL_AREA_STYLE('',(#217));
#216=FILL_AREA_STYLE_COLOUR('',#218);
#217=FILL_AREA_STYLE_COLOUR('',#218);
#218=COLOUR_RGB('',0.615686274509804,0.811764705882353,0.929411764705882);
#219=MANIFOLD_SOLID_BREP('Part2',#202);
#220=MANIFOLD_SOLID_BREP('Base_link',#203);
#221=SHAPE_DEFINITION_REPRESENTATION(#369,#224);
#222=SHAPE_DEFINITION_REPRESENTATION(#370,#225);
#223=SHAPE_DEFINITION_REPRESENTATION(#372,#226);
#224=SHAPE_REPRESENTATION('Assembly 1',(#227,#238,#245),#360);
#225=SHAPE_REPRESENTATION('Part2',(#227),#361);
#226=SHAPE_REPRESENTATION('Base_link',(#227),#362);
#227=AXIS2_PLACEMENT_3D('',#304,#246,#247);
#228=AXIS2_PLACEMENT_3D('',#305,#248,#249);
#229=AXIS2_PLACEMENT_3D('',#314,#254,#255);
#230=AXIS2_PLACEMENT_3D('',#315,#256,#257);
#231=AXIS2_PLACEMENT_3D('',#319,#259,#260);
#232=AXIS2_PLACEMENT_3D('',#320,#261,#262);
#233=AXIS2_PLACEMENT_3D('',#326,#266,#267);
#234=AXIS2_PLACEMENT_3D('',#327,#268,#269);
#235=AXIS2_PLACEMENT_3D('',#328,#270,#271);
#236=AXIS2_PLACEMENT_3D('',#329,#272,#273);
#237=AXIS2_PLACEMENT_3D('',#330,#274,#275);
#238=AXIS2_PLACEMENT_3D('',#331,#276,#277);
#239=AXIS2_PLACEMENT_3D('',#332,#278,#279);
#240=AXIS2_PLACEMENT_3D('',#341,#284,#285);
#241=AXIS2_PLACEMENT_3D('',#347,#289,#290);
#242=AXIS2_PLACEMENT_3D('',#353,#294,#295);
#243=AXIS2_PLACEMENT_3D('',#356,#298,#299);
#244=AXIS2_PLACEMENT_3D('',#357,#300,#301);
#245=AXIS2_PLACEMENT_3D('',#358,#302,#303);
#246=DIRECTION('',(0.,0.,1.));
#247=DIRECTION('',(1.,0.,0.));
#248=DIRECTION('',(1.,-3.46944695195362E-16,0.));
#249=DIRECTION('',(3.46944695195362E-16,1.,0.));
#250=DIRECTION('',(0.,0.,-1.));
#251=DIRECTION('',(-3.46944695195362E-16,-1.,0.));
#252=DIRECTION('',(0.,0.,-1.));
#253=DIRECTION('',(-3.46944695195362E-16,-1.,0.));
#254=DIRECTION('',(0.,-1.,0.));
#255=DIRECTION('',(0.,0.,-1.));
#256=DIRECTION('',(0.,-1.,0.));
#257=DIRECTION('',(0.,0.,-1.));
#258=DIRECTION('',(0.,0.,-1.));
#259=DIRECTION('',(0.,-1.,0.));
#260=DIRECTION('',(0.,0.,-1.));
#261=DIRECTION('',(1.,-3.46944695195362E-16,0.));
#262=DIRECTION('',(3.46944695195362E-16,1.,0.));
#263=DIRECTION('',(-3.46944695195362E-16,-1.,0.));
#264=DIRECTION('',(0.,0.,-1.));
#265=DIRECTION('',(-3.46944695195362E-16,-1.,0.));
#266=DIRECTION('',(0.,-1.,0.));
#267=DIRECTION('',(0.,0.,-1.));
#268=DIRECTION('',(0.,-1.,0.));
#269=DIRECTION('',(0.,0.,-1.));
#270=DIRECTION('',(0.,-1.,0.));
#271=DIRECTION('',(0.,0.,-1.));
#272=DIRECTION('',(3.46944695195362E-16,1.,0.));
#273=DIRECTION('',(-1.,3.46944695195362E-16,0.));
#274=DIRECTION('',(-3.46944695195362E-16,-1.,0.));
#275=DIRECTION('',(1.,-3.46944695195362E-16,0.));
#276=DIRECTION('',(0.82031066507351,0.566282463931108,-0.0800910969507171));
#277=DIRECTION('',(-0.558113773365829,0.823204844558351,0.104128765838354));
#278=DIRECTION('',(1.,0.,0.));
#279=DIRECTION('',(0.,0.,-1.));
#280=DIRECTION('',(0.,-1.,0.));
#281=DIRECTION('',(0.,0.,-1.));
#282=DIRECTION('',(0.,-1.,0.));
#283=DIRECTION('',(0.,0.,-1.));
#284=DIRECTION('',(0.,-1.,0.));
#285=DIRECTION('',(0.,0.,-1.));
#286=DIRECTION('',(-1.,0.,0.));
#287=DIRECTION('',(0.,0.,-1.));
#288=DIRECTION('',(-1.,0.,0.));
#289=DIRECTION('',(1.,0.,0.));
#290=DIRECTION('',(0.,0.,-1.));
#291=DIRECTION('',(0.,-1.,0.));
#292=DIRECTION('',(0.,0.,-1.));
#293=DIRECTION('',(0.,-1.,0.));
#294=DIRECTION('',(0.,-1.,0.));
#295=DIRECTION('',(0.,0.,-1.));
#296=DIRECTION('',(-1.,0.,0.));
#297=DIRECTION('',(-1.,0.,0.));
#298=DIRECTION('',(0.,0.,1.));
#299=DIRECTION('',(1.,0.,0.));
#300=DIRECTION('',(0.,0.,1.));
#301=DIRECTION('',(1.,0.,0.));
#302=DIRECTION('',(0.82031066507351,0.566282463931107,-0.0800910969507172));
#303=DIRECTION('',(-0.558113773365828,0.823204844558351,0.104128765838351));
#304=CARTESIAN_POINT('',(0.,0.,0.));
#305=CARTESIAN_POINT('',(0.01,-1.7347234759768E-18,0.1));
#306=CARTESIAN_POINT('',(0.01,-0.005,0.1));
#307=CARTESIAN_POINT('',(0.01,-0.005,0.09));
#308=CARTESIAN_POINT('',(0.01,-0.005,0.01));
#309=CARTESIAN_POINT('',(0.01,0.005,0.01));
#310=CARTESIAN_POINT('',(0.01,0.005,0.01));
#311=CARTESIAN_POINT('',(0.01,0.005,0.1));
#312=CARTESIAN_POINT('',(0.01,0.005,0.09));
#313=CARTESIAN_POINT('',(0.01,-1.7347234759768E-18,0.09));
#314=CARTESIAN_POINT('',(3.46944695195361E-18,0.005,0.1));
#315=CARTESIAN_POINT('',(1.7347234759768E-18,0.005,0.01));
#316=CARTESIAN_POINT('',(-0.01,0.005,0.01));
#317=CARTESIAN_POINT('',(-0.01,0.005,0.1));
#318=CARTESIAN_POINT('',(-0.01,0.005,0.09));
#319=CARTESIAN_POINT('',(1.7347234759768E-18,0.005,0.09));
#320=CARTESIAN_POINT('',(-0.01,-1.7347234759768E-18,0.1));
#321=CARTESIAN_POINT('',(-0.01,-1.7347234759768E-18,0.01));
#322=CARTESIAN_POINT('',(-0.01,-0.005,0.01));
#323=CARTESIAN_POINT('',(-0.01,-0.005,0.1));
#324=CARTESIAN_POINT('',(-0.01,-0.005,0.09));
#325=CARTESIAN_POINT('',(-0.01,0.005,0.09));
#326=CARTESIAN_POINT('',(0.,-0.005,0.1));
#327=CARTESIAN_POINT('',(-1.73472347597681E-18,-0.005,0.01));
#328=CARTESIAN_POINT('',(-1.73472347597681E-18,-0.005,0.09));
#329=CARTESIAN_POINT('',(-1.20370621524202E-33,-1.7347234759768E-18,0.01));
#330=CARTESIAN_POINT('',(0.,1.7347234759768E-18,0.09));
#331=CARTESIAN_POINT('',(0.120804972821746,-0.155128782132053,-0.0468104635286032));
#332=CARTESIAN_POINT('',(0.1,-6.93889390390723E-18,0.025));
#333=CARTESIAN_POINT('',(0.1,-6.93889390390723E-18,0.));
#334=CARTESIAN_POINT('',(0.1,0.025,0.));
#335=CARTESIAN_POINT('',(0.1,-0.025,0.));
#336=CARTESIAN_POINT('',(0.1,0.025,0.025));
#337=CARTESIAN_POINT('',(0.1,0.025,0.025));
#338=CARTESIAN_POINT('',(0.1,-6.93889390390723E-18,0.025));
#339=CARTESIAN_POINT('',(0.1,-0.025,0.025));
#340=CARTESIAN_POINT('',(0.1,-0.025,0.025));
#341=CARTESIAN_POINT('',(1.38777878078145E-17,0.025,0.025));
#342=CARTESIAN_POINT('',(1.38777878078145E-17,0.025,0.));
#343=CARTESIAN_POINT('',(-0.1,0.025,0.));
#344=CARTESIAN_POINT('',(-0.1,0.025,0.025));
#345=CARTESIAN_POINT('',(-0.1,0.025,0.025));
#346=CARTESIAN_POINT('',(1.38777878078145E-17,0.025,0.025));
#347=CARTESIAN_POINT('',(-0.1,-6.93889390390723E-18,0.025));
#348=CARTESIAN_POINT('',(-0.1,-6.93889390390723E-18,0.));
#349=CARTESIAN_POINT('',(-0.1,-0.025,0.));
#350=CARTESIAN_POINT('',(-0.1,-0.025,0.025));
#351=CARTESIAN_POINT('',(-0.1,-0.025,0.025));
#352=CARTESIAN_POINT('',(-0.1,-6.93889390390723E-18,0.025));
#353=CARTESIAN_POINT('',(1.38777878078145E-17,-0.025,0.025));
#354=CARTESIAN_POINT('',(1.38777878078145E-17,-0.025,0.));
#355=CARTESIAN_POINT('',(1.38777878078145E-17,-0.025,0.025));
#356=CARTESIAN_POINT('',(2.77555756156289E-17,-6.93889390390723E-18,0.025));
#357=CARTESIAN_POINT('',(2.77555756156289E-17,-6.93889390390723E-18,0.));
#358=CARTESIAN_POINT('',(0.0526889355090609,-0.0813025346351855,-0.0351962204905072));
#359=MECHANICAL_DESIGN_GEOMETRIC_PRESENTATION_REPRESENTATION('',(#204,#205),
#360);
#360=(
GEOMETRIC_REPRESENTATION_CONTEXT(3)
GLOBAL_UNCERTAINTY_ASSIGNED_CONTEXT((#363))
GLOBAL_UNIT_ASSIGNED_CONTEXT((#368,#367,#366))
REPRESENTATION_CONTEXT('Assembly 1','TOP_LEVEL_ASSEMBLY_PART')
);
#361=(
GEOMETRIC_REPRESENTATION_CONTEXT(3)
GLOBAL_UNCERTAINTY_ASSIGNED_CONTEXT((#364))
GLOBAL_UNIT_ASSIGNED_CONTEXT((#368,#367,#366))
REPRESENTATION_CONTEXT('Part2','COMPONENT_PART')
);
#362=(
GEOMETRIC_REPRESENTATION_CONTEXT(3)
GLOBAL_UNCERTAINTY_ASSIGNED_CONTEXT((#365))
GLOBAL_UNIT_ASSIGNED_CONTEXT((#368,#367,#366))
REPRESENTATION_CONTEXT('Base_link','COMPONENT_PART')
);
#363=UNCERTAINTY_MEASURE_WITH_UNIT(LENGTH_MEASURE(1.E-8),#368,
'DISTANCE_ACCURACY_VALUE','Maximum Tolerance applied to model');
#364=UNCERTAINTY_MEASURE_WITH_UNIT(LENGTH_MEASURE(1.E-8),#368,
'DISTANCE_ACCURACY_VALUE','Maximum Tolerance applied to model');
#365=UNCERTAINTY_MEASURE_WITH_UNIT(LENGTH_MEASURE(1.E-8),#368,
'DISTANCE_ACCURACY_VALUE','Maximum Tolerance applied to model');
#366=(
NAMED_UNIT(*)
SI_UNIT($,.STERADIAN.)
SOLID_ANGLE_UNIT()
);
#367=(
NAMED_UNIT(*)
PLANE_ANGLE_UNIT()
SI_UNIT($,.RADIAN.)
);
#368=(
LENGTH_UNIT()
NAMED_UNIT(*)
SI_UNIT($,.METRE.)
);
#369=PRODUCT_DEFINITION_SHAPE('','',#374);
#370=PRODUCT_DEFINITION_SHAPE('','',#375);
#371=PRODUCT_DEFINITION_SHAPE(' ','NAUO PRDDFN',#12);
#372=PRODUCT_DEFINITION_SHAPE('','',#376);
#373=PRODUCT_DEFINITION_SHAPE(' ','NAUO PRDDFN',#13);
#374=PRODUCT_DEFINITION('','',#380,#377);
#375=PRODUCT_DEFINITION('','',#381,#378);
#376=PRODUCT_DEFINITION('','',#382,#379);
#377=PRODUCT_DEFINITION_CONTEXT('',#396,'design');
#378=PRODUCT_DEFINITION_CONTEXT('',#396,'design');
#379=PRODUCT_DEFINITION_CONTEXT('',#396,'design');
#380=PRODUCT_DEFINITION_FORMATION_WITH_SPECIFIED_SOURCE('','',#386,
 .NOT_KNOWN.);
#381=PRODUCT_DEFINITION_FORMATION_WITH_SPECIFIED_SOURCE('','',#387,
 .NOT_KNOWN.);
#382=PRODUCT_DEFINITION_FORMATION_WITH_SPECIFIED_SOURCE('','',#388,
 .NOT_KNOWN.);
#383=PRODUCT_RELATED_PRODUCT_CATEGORY('','',(#386));
#384=PRODUCT_RELATED_PRODUCT_CATEGORY('','',(#387));
#385=PRODUCT_RELATED_PRODUCT_CATEGORY('','',(#388));
#386=PRODUCT('Assembly 1','Assembly 1','Assembly 1',(#392));
#387=PRODUCT('Part2','Part2','Part2',(#393));
#388=PRODUCT('Base_link','Base_link','Base_link',(#394));
#389=PRODUCT_CATEGORY('','');
#390=PRODUCT_CATEGORY('','');
#391=PRODUCT_CATEGORY('','');
#392=PRODUCT_CONTEXT('',#396,'mechanical');
#393=PRODUCT_CONTEXT('',#396,'mechanical');
#394=PRODUCT_CONTEXT('',#396,'mechanical');
#395=APPLICATION_PROTOCOL_DEFINITION('international standard',
'ap242_managed_model_based_3d_engineering',2020,#396);
#396=APPLICATION_CONTEXT('managed model based 3d engineering');
ENDSEC;
END-ISO-10303-21;
