ISO-10303-21;
HEADER;
/* Generated by software containing ST-Developer
 * from STEP Tools, Inc. (www.steptools.com) 
 */
/* OPTION: using custom renumber hook */

FILE_DESCRIPTION(
/* description */ ('STEP AP242 Edition 2',
'CAx-IF Rec.Pracs.---Representation and Presentation of Product Manufa
cturing Information (PMI)---4.0---2014-10-13',
'CAx-IF Rec.Pracs.---3D Tessellated Geometry---0.4---2014-09-14','2;1',
'CAx-IF Rec.Pracs.---User Defined Attributes---1.5---2016-08-15'),
/* implementation_level */ '2;1');

FILE_NAME(
/* name */ '6a25841c95200356aa7ac3a9',
/* time_stamp */ '2026-06-07T14:45:49Z',
/* author */ (''),
/* organization */ (''),
/* preprocessor_version */ 'ST-DEVELOPER v20',
/* originating_system */ 'ONSHAPE BY PTC INC, 1.216',
/* authorisation */ '  ');

FILE_SCHEMA (('AP242_MANAGED_MODEL_BASED_3D_ENGINEERING_MIM_LF { 1 0 10303 442 3 1 4 }'));
ENDSEC;

DATA;
#10=CONTEXT_DEPENDENT_SHAPE_REPRESENTATION(#18,#387);
#11=CONTEXT_DEPENDENT_SHAPE_REPRESENTATION(#19,#389);
#12=CONTEXT_DEPENDENT_SHAPE_REPRESENTATION(#20,#390);
#13=CONTEXT_DEPENDENT_SHAPE_REPRESENTATION(#21,#391);
#14=NEXT_ASSEMBLY_USAGE_OCCURRENCE('NAUO1','Part 1','Part 1',#392,#393,
'');
#15=NEXT_ASSEMBLY_USAGE_OCCURRENCE('NAUO2','Part 1','Part 1',#392,#394,
'');
#16=NEXT_ASSEMBLY_USAGE_OCCURRENCE('NAUO3','Part 1','Part 1',#392,#393,
'');
#17=NEXT_ASSEMBLY_USAGE_OCCURRENCE('NAUO4','Part 1','Part 1',#392,#393,
'');
#18=(
REPRESENTATION_RELATIONSHIP(' ',' ',#233,#232)
REPRESENTATION_RELATIONSHIP_WITH_TRANSFORMATION(#22)
SHAPE_REPRESENTATION_RELATIONSHIP()
);
#19=(
REPRESENTATION_RELATIONSHIP(' ',' ',#234,#232)
REPRESENTATION_RELATIONSHIP_WITH_TRANSFORMATION(#23)
SHAPE_REPRESENTATION_RELATIONSHIP()
);
#20=(
REPRESENTATION_RELATIONSHIP(' ',' ',#233,#232)
REPRESENTATION_RELATIONSHIP_WITH_TRANSFORMATION(#24)
SHAPE_REPRESENTATION_RELATIONSHIP()
);
#21=(
REPRESENTATION_RELATIONSHIP(' ',' ',#233,#232)
REPRESENTATION_RELATIONSHIP_WITH_TRANSFORMATION(#25)
SHAPE_REPRESENTATION_RELATIONSHIP()
);
#22=ITEM_DEFINED_TRANSFORMATION(' ',' ',#235,#246);
#23=ITEM_DEFINED_TRANSFORMATION(' ',' ',#235,#253);
#24=ITEM_DEFINED_TRANSFORMATION(' ',' ',#235,#254);
#25=ITEM_DEFINED_TRANSFORMATION(' ',' ',#235,#255);
#26=SHAPE_REPRESENTATION_RELATIONSHIP('','',#233,#28);
#27=SHAPE_REPRESENTATION_RELATIONSHIP('','',#234,#29);
#28=ADVANCED_BREP_SHAPE_REPRESENTATION('',(#227),#377);
#29=ADVANCED_BREP_SHAPE_REPRESENTATION('',(#228),#378);
#30=CYLINDRICAL_SURFACE('',#244,0.01);
#31=CYLINDRICAL_SURFACE('',#245,0.01);
#32=CIRCLE('',#238,0.01);
#33=CIRCLE('',#239,0.01);
#34=CIRCLE('',#242,0.01);
#35=CIRCLE('',#243,0.01);
#36=ORIENTED_EDGE('',*,*,#84,.T.);
#37=ORIENTED_EDGE('',*,*,#85,.T.);
#38=ORIENTED_EDGE('',*,*,#86,.F.);
#39=ORIENTED_EDGE('',*,*,#87,.T.);
#40=ORIENTED_EDGE('',*,*,#88,.T.);
#41=ORIENTED_EDGE('',*,*,#89,.F.);
#42=ORIENTED_EDGE('',*,*,#90,.T.);
#43=ORIENTED_EDGE('',*,*,#86,.T.);
#44=ORIENTED_EDGE('',*,*,#89,.T.);
#45=ORIENTED_EDGE('',*,*,#91,.T.);
#46=ORIENTED_EDGE('',*,*,#92,.F.);
#47=ORIENTED_EDGE('',*,*,#93,.T.);
#48=ORIENTED_EDGE('',*,*,#92,.T.);
#49=ORIENTED_EDGE('',*,*,#94,.T.);
#50=ORIENTED_EDGE('',*,*,#84,.F.);
#51=ORIENTED_EDGE('',*,*,#95,.T.);
#52=ORIENTED_EDGE('',*,*,#94,.F.);
#53=ORIENTED_EDGE('',*,*,#91,.F.);
#54=ORIENTED_EDGE('',*,*,#88,.F.);
#55=ORIENTED_EDGE('',*,*,#85,.F.);
#56=ORIENTED_EDGE('',*,*,#87,.F.);
#57=ORIENTED_EDGE('',*,*,#90,.F.);
#58=ORIENTED_EDGE('',*,*,#93,.F.);
#59=ORIENTED_EDGE('',*,*,#95,.F.);
#60=ORIENTED_EDGE('',*,*,#96,.F.);
#61=ORIENTED_EDGE('',*,*,#97,.F.);
#62=ORIENTED_EDGE('',*,*,#98,.T.);
#63=ORIENTED_EDGE('',*,*,#99,.T.);
#64=ORIENTED_EDGE('',*,*,#100,.T.);
#65=ORIENTED_EDGE('',*,*,#101,.F.);
#66=ORIENTED_EDGE('',*,*,#102,.F.);
#67=ORIENTED_EDGE('',*,*,#97,.T.);
#68=ORIENTED_EDGE('',*,*,#103,.T.);
#69=ORIENTED_EDGE('',*,*,#104,.F.);
#70=ORIENTED_EDGE('',*,*,#105,.F.);
#71=ORIENTED_EDGE('',*,*,#101,.T.);
#72=ORIENTED_EDGE('',*,*,#106,.F.);
#73=ORIENTED_EDGE('',*,*,#99,.F.);
#74=ORIENTED_EDGE('',*,*,#107,.T.);
#75=ORIENTED_EDGE('',*,*,#104,.T.);
#76=ORIENTED_EDGE('',*,*,#98,.F.);
#77=ORIENTED_EDGE('',*,*,#102,.T.);
#78=ORIENTED_EDGE('',*,*,#105,.T.);
#79=ORIENTED_EDGE('',*,*,#107,.F.);
#80=ORIENTED_EDGE('',*,*,#96,.T.);
#81=ORIENTED_EDGE('',*,*,#106,.T.);
#82=ORIENTED_EDGE('',*,*,#103,.F.);
#83=ORIENTED_EDGE('',*,*,#100,.F.);
#84=EDGE_CURVE('',#108,#109,#124,.T.);
#85=EDGE_CURVE('',#109,#110,#125,.F.);
#86=EDGE_CURVE('',#111,#110,#126,.T.);
#87=EDGE_CURVE('',#111,#108,#127,.T.);
#88=EDGE_CURVE('',#110,#112,#32,.F.);
#89=EDGE_CURVE('',#113,#112,#128,.T.);
#90=EDGE_CURVE('',#113,#111,#33,.F.);
#91=EDGE_CURVE('',#112,#114,#129,.T.);
#92=EDGE_CURVE('',#115,#114,#130,.T.);
#93=EDGE_CURVE('',#115,#113,#131,.F.);
#94=EDGE_CURVE('',#114,#109,#34,.T.);
#95=EDGE_CURVE('',#108,#115,#35,.T.);
#96=EDGE_CURVE('',#116,#117,#132,.T.);
#97=EDGE_CURVE('',#118,#116,#133,.T.);
#98=EDGE_CURVE('',#118,#119,#134,.T.);
#99=EDGE_CURVE('',#119,#117,#135,.T.);
#100=EDGE_CURVE('',#116,#120,#136,.T.);
#101=EDGE_CURVE('',#121,#120,#137,.T.);
#102=EDGE_CURVE('',#118,#121,#138,.T.);
#103=EDGE_CURVE('',#120,#122,#139,.T.);
#104=EDGE_CURVE('',#123,#122,#140,.T.);
#105=EDGE_CURVE('',#121,#123,#141,.T.);
#106=EDGE_CURVE('',#117,#122,#142,.T.);
#107=EDGE_CURVE('',#119,#123,#143,.T.);
#108=VERTEX_POINT('',#321);
#109=VERTEX_POINT('',#322);
#110=VERTEX_POINT('',#324);
#111=VERTEX_POINT('',#326);
#112=VERTEX_POINT('',#330);
#113=VERTEX_POINT('',#332);
#114=VERTEX_POINT('',#336);
#115=VERTEX_POINT('',#338);
#116=VERTEX_POINT('',#348);
#117=VERTEX_POINT('',#349);
#118=VERTEX_POINT('',#351);
#119=VERTEX_POINT('',#353);
#120=VERTEX_POINT('',#357);
#121=VERTEX_POINT('',#359);
#122=VERTEX_POINT('',#363);
#123=VERTEX_POINT('',#365);
#124=LINE('',#320,#144);
#125=LINE('',#323,#145);
#126=LINE('',#325,#146);
#127=LINE('',#327,#147);
#128=LINE('',#331,#148);
#129=LINE('',#335,#149);
#130=LINE('',#337,#150);
#131=LINE('',#339,#151);
#132=LINE('',#347,#152);
#133=LINE('',#350,#153);
#134=LINE('',#352,#154);
#135=LINE('',#354,#155);
#136=LINE('',#356,#156);
#137=LINE('',#358,#157);
#138=LINE('',#360,#158);
#139=LINE('',#362,#159);
#140=LINE('',#364,#160);
#141=LINE('',#366,#161);
#142=LINE('',#368,#162);
#143=LINE('',#369,#163);
#144=VECTOR('',#260,1.);
#145=VECTOR('',#261,1.);
#146=VECTOR('',#262,1.);
#147=VECTOR('',#263,1.);
#148=VECTOR('',#268,1.);
#149=VECTOR('',#273,1.);
#150=VECTOR('',#274,1.);
#151=VECTOR('',#275,1.);
#152=VECTOR('',#290,1.);
#153=VECTOR('',#291,1.);
#154=VECTOR('',#292,1.);
#155=VECTOR('',#293,1.);
#156=VECTOR('',#296,1.);
#157=VECTOR('',#297,1.);
#158=VECTOR('',#298,1.);
#159=VECTOR('',#301,1.);
#160=VECTOR('',#302,1.);
#161=VECTOR('',#303,1.);
#162=VECTOR('',#306,1.);
#163=VECTOR('',#307,1.);
#164=EDGE_LOOP('',(#36,#37,#38,#39));
#165=EDGE_LOOP('',(#40,#41,#42,#43));
#166=EDGE_LOOP('',(#44,#45,#46,#47));
#167=EDGE_LOOP('',(#48,#49,#50,#51));
#168=EDGE_LOOP('',(#52,#53,#54,#55));
#169=EDGE_LOOP('',(#56,#57,#58,#59));
#170=EDGE_LOOP('',(#60,#61,#62,#63));
#171=EDGE_LOOP('',(#64,#65,#66,#67));
#172=EDGE_LOOP('',(#68,#69,#70,#71));
#173=EDGE_LOOP('',(#72,#73,#74,#75));
#174=EDGE_LOOP('',(#76,#77,#78,#79));
#175=EDGE_LOOP('',(#80,#81,#82,#83));
#176=FACE_BOUND('',#164,.T.);
#177=FACE_BOUND('',#165,.T.);
#178=FACE_BOUND('',#166,.T.);
#179=FACE_BOUND('',#167,.T.);
#180=FACE_BOUND('',#168,.T.);
#181=FACE_BOUND('',#169,.T.);
#182=FACE_BOUND('',#170,.T.);
#183=FACE_BOUND('',#171,.T.);
#184=FACE_BOUND('',#172,.T.);
#185=FACE_BOUND('',#173,.T.);
#186=FACE_BOUND('',#174,.T.);
#187=FACE_BOUND('',#175,.T.);
#188=PLANE('',#236);
#189=PLANE('',#237);
#190=PLANE('',#240);
#191=PLANE('',#241);
#192=PLANE('',#247);
#193=PLANE('',#248);
#194=PLANE('',#249);
#195=PLANE('',#250);
#196=PLANE('',#251);
#197=PLANE('',#252);
#198=ADVANCED_FACE('',(#176),#188,.T.);
#199=ADVANCED_FACE('',(#177),#189,.F.);
#200=ADVANCED_FACE('',(#178),#190,.F.);
#201=ADVANCED_FACE('',(#179),#191,.T.);
#202=ADVANCED_FACE('',(#180),#30,.T.);
#203=ADVANCED_FACE('',(#181),#31,.T.);
#204=ADVANCED_FACE('',(#182),#192,.T.);
#205=ADVANCED_FACE('',(#183),#193,.F.);
#206=ADVANCED_FACE('',(#184),#194,.F.);
#207=ADVANCED_FACE('',(#185),#195,.T.);
#208=ADVANCED_FACE('',(#186),#196,.T.);
#209=ADVANCED_FACE('',(#187),#197,.F.);
#210=CLOSED_SHELL('',(#198,#199,#200,#201,#202,#203));
#211=CLOSED_SHELL('',(#204,#205,#206,#207,#208,#209));
#212=STYLED_ITEM('',(#214),#227);
#213=STYLED_ITEM('',(#215),#228);
#214=PRESENTATION_STYLE_ASSIGNMENT((#216));
#215=PRESENTATION_STYLE_ASSIGNMENT((#217));
#216=SURFACE_STYLE_USAGE(.BOTH.,#218);
#217=SURFACE_STYLE_USAGE(.BOTH.,#219);
#218=SURFACE_SIDE_STYLE('',(#220));
#219=SURFACE_SIDE_STYLE('',(#221));
#220=SURFACE_STYLE_FILL_AREA(#222);
#221=SURFACE_STYLE_FILL_AREA(#223);
#222=FILL_AREA_STYLE('',(#224));
#223=FILL_AREA_STYLE('',(#225));
#224=FILL_AREA_STYLE_COLOUR('',#226);
#225=FILL_AREA_STYLE_COLOUR('',#226);
#226=COLOUR_RGB('',0.615686274509804,0.811764705882353,0.929411764705882);
#227=MANIFOLD_SOLID_BREP('Part 1',#210);
#228=MANIFOLD_SOLID_BREP('Part 1',#211);
#229=SHAPE_DEFINITION_REPRESENTATION(#385,#232);
#230=SHAPE_DEFINITION_REPRESENTATION(#386,#233);
#231=SHAPE_DEFINITION_REPRESENTATION(#388,#234);
#232=SHAPE_REPRESENTATION('Assembly 1',(#235,#246,#253,#254,#255),#376);
#233=SHAPE_REPRESENTATION('Part 1',(#235),#377);
#234=SHAPE_REPRESENTATION('Part 1',(#235),#378);
#235=AXIS2_PLACEMENT_3D('',#318,#256,#257);
#236=AXIS2_PLACEMENT_3D('',#319,#258,#259);
#237=AXIS2_PLACEMENT_3D('',#328,#264,#265);
#238=AXIS2_PLACEMENT_3D('',#329,#266,#267);
#239=AXIS2_PLACEMENT_3D('',#333,#269,#270);
#240=AXIS2_PLACEMENT_3D('',#334,#271,#272);
#241=AXIS2_PLACEMENT_3D('',#340,#276,#277);
#242=AXIS2_PLACEMENT_3D('',#341,#278,#279);
#243=AXIS2_PLACEMENT_3D('',#342,#280,#281);
#244=AXIS2_PLACEMENT_3D('',#343,#282,#283);
#245=AXIS2_PLACEMENT_3D('',#344,#284,#285);
#246=AXIS2_PLACEMENT_3D('',#345,#286,#287);
#247=AXIS2_PLACEMENT_3D('',#346,#288,#289);
#248=AXIS2_PLACEMENT_3D('',#355,#294,#295);
#249=AXIS2_PLACEMENT_3D('',#361,#299,#300);
#250=AXIS2_PLACEMENT_3D('',#367,#304,#305);
#251=AXIS2_PLACEMENT_3D('',#370,#308,#309);
#252=AXIS2_PLACEMENT_3D('',#371,#310,#311);
#253=AXIS2_PLACEMENT_3D('',#372,#312,#313);
#254=AXIS2_PLACEMENT_3D('',#373,#314,#315);
#255=AXIS2_PLACEMENT_3D('',#374,#316,#317);
#256=DIRECTION('',(0.,0.,1.));
#257=DIRECTION('',(1.,0.,0.));
#258=DIRECTION('',(1.,-3.46944695195362E-16,0.));
#259=DIRECTION('',(3.46944695195362E-16,1.,0.));
#260=DIRECTION('',(0.,0.,-1.));
#261=DIRECTION('',(-3.46944695195362E-16,-1.,0.));
#262=DIRECTION('',(0.,0.,-1.));
#263=DIRECTION('',(-3.46944695195362E-16,-1.,0.));
#264=DIRECTION('',(0.,-1.,0.));
#265=DIRECTION('',(0.,0.,-1.));
#266=DIRECTION('',(0.,-1.,0.));
#267=DIRECTION('',(0.,0.,-1.));
#268=DIRECTION('',(0.,0.,-1.));
#269=DIRECTION('',(0.,-1.,0.));
#270=DIRECTION('',(0.,0.,-1.));
#271=DIRECTION('',(1.,-3.46944695195362E-16,0.));
#272=DIRECTION('',(3.46944695195362E-16,1.,0.));
#273=DIRECTION('',(-3.46944695195362E-16,-1.,0.));
#274=DIRECTION('',(0.,0.,-1.));
#275=DIRECTION('',(-3.46944695195362E-16,-1.,0.));
#276=DIRECTION('',(0.,-1.,0.));
#277=DIRECTION('',(0.,0.,-1.));
#278=DIRECTION('',(0.,-1.,0.));
#279=DIRECTION('',(0.,0.,-1.));
#280=DIRECTION('',(0.,-1.,0.));
#281=DIRECTION('',(0.,0.,-1.));
#282=DIRECTION('',(3.46944695195362E-16,1.,0.));
#283=DIRECTION('',(-1.,3.46944695195362E-16,0.));
#284=DIRECTION('',(-3.46944695195362E-16,-1.,0.));
#285=DIRECTION('',(1.,-3.46944695195362E-16,0.));
#286=DIRECTION('',(-1.09306811833656E-16,9.53933954006151E-10,-1.));
#287=DIRECTION('',(-1.,5.79076320203369E-16,1.09306812386056E-16));
#288=DIRECTION('',(1.,0.,0.));
#289=DIRECTION('',(0.,0.,-1.));
#290=DIRECTION('',(0.,-1.,0.));
#291=DIRECTION('',(0.,0.,-1.));
#292=DIRECTION('',(0.,-1.,0.));
#293=DIRECTION('',(0.,0.,-1.));
#294=DIRECTION('',(0.,-1.,0.));
#295=DIRECTION('',(0.,0.,-1.));
#296=DIRECTION('',(-1.,0.,0.));
#297=DIRECTION('',(0.,0.,-1.));
#298=DIRECTION('',(-1.,0.,0.));
#299=DIRECTION('',(1.,0.,0.));
#300=DIRECTION('',(0.,0.,-1.));
#301=DIRECTION('',(0.,-1.,0.));
#302=DIRECTION('',(0.,0.,-1.));
#303=DIRECTION('',(0.,-1.,0.));
#304=DIRECTION('',(0.,-1.,0.));
#305=DIRECTION('',(0.,0.,-1.));
#306=DIRECTION('',(-1.,0.,0.));
#307=DIRECTION('',(-1.,0.,0.));
#308=DIRECTION('',(0.,0.,1.));
#309=DIRECTION('',(1.,0.,0.));
#310=DIRECTION('',(0.,0.,1.));
#311=DIRECTION('',(1.,0.,0.));
#312=DIRECTION('',(-1.09306811833655E-16,9.53933954006151E-10,-1.));
#313=DIRECTION('',(-1.,-3.15463433224615E-17,1.09306811803562E-16));
#314=DIRECTION('',(1.,8.70574388421962E-17,-2.15105710834679E-16));
#315=DIRECTION('',(-2.15105710917727E-16,9.53934178486167E-10,-1.));
#316=DIRECTION('',(3.34782401328483E-16,9.53933954006146E-10,-1.));
#317=DIRECTION('',(-1.,4.819318032037E-16,-3.34782400868752E-16));
#318=CARTESIAN_POINT('',(0.,0.,0.));
#319=CARTESIAN_POINT('',(0.01,-1.7347234759768E-18,0.1));
#320=CARTESIAN_POINT('',(0.01,-0.005,0.1));
#321=CARTESIAN_POINT('',(0.01,-0.005,0.09));
#322=CARTESIAN_POINT('',(0.01,-0.005,0.01));
#323=CARTESIAN_POINT('',(0.01,0.005,0.01));
#324=CARTESIAN_POINT('',(0.01,0.005,0.01));
#325=CARTESIAN_POINT('',(0.01,0.005,0.1));
#326=CARTESIAN_POINT('',(0.01,0.005,0.09));
#327=CARTESIAN_POINT('',(0.01,-1.7347234759768E-18,0.09));
#328=CARTESIAN_POINT('',(3.46944695195361E-18,0.005,0.1));
#329=CARTESIAN_POINT('',(1.7347234759768E-18,0.005,0.01));
#330=CARTESIAN_POINT('',(-0.01,0.005,0.01));
#331=CARTESIAN_POINT('',(-0.01,0.005,0.1));
#332=CARTESIAN_POINT('',(-0.01,0.005,0.09));
#333=CARTESIAN_POINT('',(1.7347234759768E-18,0.005,0.09));
#334=CARTESIAN_POINT('',(-0.01,-1.7347234759768E-18,0.1));
#335=CARTESIAN_POINT('',(-0.01,-1.7347234759768E-18,0.01));
#336=CARTESIAN_POINT('',(-0.01,-0.005,0.01));
#337=CARTESIAN_POINT('',(-0.01,-0.005,0.1));
#338=CARTESIAN_POINT('',(-0.01,-0.005,0.09));
#339=CARTESIAN_POINT('',(-0.01,0.005,0.09));
#340=CARTESIAN_POINT('',(0.,-0.005,0.1));
#341=CARTESIAN_POINT('',(-1.73472347597681E-18,-0.005,0.01));
#342=CARTESIAN_POINT('',(-1.73472347597681E-18,-0.005,0.09));
#343=CARTESIAN_POINT('',(-1.20370621524202E-33,-1.7347234759768E-18,0.01));
#344=CARTESIAN_POINT('',(0.,1.7347234759768E-18,0.09));
#345=CARTESIAN_POINT('',(0.0971202587990183,-0.0303941732514211,-0.0112763132378684));
#346=CARTESIAN_POINT('',(0.1,-6.93889390390723E-18,0.025));
#347=CARTESIAN_POINT('',(0.1,-6.93889390390723E-18,0.));
#348=CARTESIAN_POINT('',(0.1,0.025,0.));
#349=CARTESIAN_POINT('',(0.1,-0.025,0.));
#350=CARTESIAN_POINT('',(0.1,0.025,0.025));
#351=CARTESIAN_POINT('',(0.1,0.025,0.025));
#352=CARTESIAN_POINT('',(0.1,-6.93889390390723E-18,0.025));
#353=CARTESIAN_POINT('',(0.1,-0.025,0.025));
#354=CARTESIAN_POINT('',(0.1,-0.025,0.025));
#355=CARTESIAN_POINT('',(1.38777878078145E-17,0.025,0.025));
#356=CARTESIAN_POINT('',(1.38777878078145E-17,0.025,0.));
#357=CARTESIAN_POINT('',(-0.1,0.025,0.));
#358=CARTESIAN_POINT('',(-0.1,0.025,0.025));
#359=CARTESIAN_POINT('',(-0.1,0.025,0.025));
#360=CARTESIAN_POINT('',(1.38777878078145E-17,0.025,0.025));
#361=CARTESIAN_POINT('',(-0.1,-6.93889390390723E-18,0.025));
#362=CARTESIAN_POINT('',(-0.1,-6.93889390390723E-18,0.));
#363=CARTESIAN_POINT('',(-0.1,-0.025,0.));
#364=CARTESIAN_POINT('',(-0.1,-0.025,0.025));
#365=CARTESIAN_POINT('',(-0.1,-0.025,0.025));
#366=CARTESIAN_POINT('',(-0.1,-6.93889390390723E-18,0.025));
#367=CARTESIAN_POINT('',(1.38777878078145E-17,-0.025,0.025));
#368=CARTESIAN_POINT('',(1.38777878078145E-17,-0.025,0.));
#369=CARTESIAN_POINT('',(1.38777878078145E-17,-0.025,0.025));
#370=CARTESIAN_POINT('',(2.77555756156289E-17,-6.93889390390723E-18,0.025));
#371=CARTESIAN_POINT('',(2.77555756156289E-17,-6.93889390390723E-18,0.));
#372=CARTESIAN_POINT('',(0.0447289811020495,-0.0353941732752694,0.0137236867573619));
#373=CARTESIAN_POINT('',(0.00712025879901831,-0.040394173165567,-0.101276313247408));
#374=CARTESIAN_POINT('',(0.00472898110204947,-0.0303941732728846,0.0112236867621316));
#375=MECHANICAL_DESIGN_GEOMETRIC_PRESENTATION_REPRESENTATION('',(#212,#213),
#376);
#376=(
GEOMETRIC_REPRESENTATION_CONTEXT(3)
GLOBAL_UNCERTAINTY_ASSIGNED_CONTEXT((#379))
GLOBAL_UNIT_ASSIGNED_CONTEXT((#384,#383,#382))
REPRESENTATION_CONTEXT('Assembly 1','TOP_LEVEL_ASSEMBLY_PART')
);
#377=(
GEOMETRIC_REPRESENTATION_CONTEXT(3)
GLOBAL_UNCERTAINTY_ASSIGNED_CONTEXT((#380))
GLOBAL_UNIT_ASSIGNED_CONTEXT((#384,#383,#382))
REPRESENTATION_CONTEXT('Part 1','COMPONENT_PART')
);
#378=(
GEOMETRIC_REPRESENTATION_CONTEXT(3)
GLOBAL_UNCERTAINTY_ASSIGNED_CONTEXT((#381))
GLOBAL_UNIT_ASSIGNED_CONTEXT((#384,#383,#382))
REPRESENTATION_CONTEXT('Part 1','COMPONENT_PART')
);
#379=UNCERTAINTY_MEASURE_WITH_UNIT(LENGTH_MEASURE(1.E-8),#384,
'DISTANCE_ACCURACY_VALUE','Maximum Tolerance applied to model');
#380=UNCERTAINTY_MEASURE_WITH_UNIT(LENGTH_MEASURE(1.E-8),#384,
'DISTANCE_ACCURACY_VALUE','Maximum Tolerance applied to model');
#381=UNCERTAINTY_MEASURE_WITH_UNIT(LENGTH_MEASURE(1.E-8),#384,
'DISTANCE_ACCURACY_VALUE','Maximum Tolerance applied to model');
#382=(
NAMED_UNIT(*)
SI_UNIT($,.STERADIAN.)
SOLID_ANGLE_UNIT()
);
#383=(
NAMED_UNIT(*)
PLANE_ANGLE_UNIT()
SI_UNIT($,.RADIAN.)
);
#384=(
LENGTH_UNIT()
NAMED_UNIT(*)
SI_UNIT($,.METRE.)
);
#385=PRODUCT_DEFINITION_SHAPE('','',#392);
#386=PRODUCT_DEFINITION_SHAPE('','',#393);
#387=PRODUCT_DEFINITION_SHAPE(' ','NAUO PRDDFN',#14);
#388=PRODUCT_DEFINITION_SHAPE('','',#394);
#389=PRODUCT_DEFINITION_SHAPE(' ','NAUO PRDDFN',#15);
#390=PRODUCT_DEFINITION_SHAPE(' ','NAUO PRDDFN',#16);
#391=PRODUCT_DEFINITION_SHAPE(' ','NAUO PRDDFN',#17);
#392=PRODUCT_DEFINITION('','',#398,#395);
#393=PRODUCT_DEFINITION('','',#399,#396);
#394=PRODUCT_DEFINITION('','',#400,#397);
#395=PRODUCT_DEFINITION_CONTEXT('',#414,'design');
#396=PRODUCT_DEFINITION_CONTEXT('',#414,'design');
#397=PRODUCT_DEFINITION_CONTEXT('',#414,'design');
#398=PRODUCT_DEFINITION_FORMATION_WITH_SPECIFIED_SOURCE('','',#404,
 .NOT_KNOWN.);
#399=PRODUCT_DEFINITION_FORMATION_WITH_SPECIFIED_SOURCE('','',#405,
 .NOT_KNOWN.);
#400=PRODUCT_DEFINITION_FORMATION_WITH_SPECIFIED_SOURCE('','',#406,
 .NOT_KNOWN.);
#401=PRODUCT_RELATED_PRODUCT_CATEGORY('','',(#404));
#402=PRODUCT_RELATED_PRODUCT_CATEGORY('','',(#405));
#403=PRODUCT_RELATED_PRODUCT_CATEGORY('','',(#406));
#404=PRODUCT('Assembly 1','Assembly 1','Assembly 1',(#410));
#405=PRODUCT('Part 1','Part 1','Part 1',(#411));
#406=PRODUCT('Part 1','Part 1','Part 1',(#412));
#407=PRODUCT_CATEGORY('','');
#408=PRODUCT_CATEGORY('','');
#409=PRODUCT_CATEGORY('','');
#410=PRODUCT_CONTEXT('',#414,'mechanical');
#411=PRODUCT_CONTEXT('',#414,'mechanical');
#412=PRODUCT_CONTEXT('',#414,'mechanical');
#413=APPLICATION_PROTOCOL_DEFINITION('international standard',
'ap242_managed_model_based_3d_engineering',2020,#414);
#414=APPLICATION_CONTEXT('managed model based 3d engineering');
ENDSEC;
END-ISO-10303-21;
